<?xml version="1.0" encoding="UTF-8"?>
<svg id="Camada_2" data-name="Camada 2" xmlns="http://www.w3.org/2000/svg" viewBox="0 0 834.56 688">
  <defs>
    <style>
      .cls-1 {
        fill: #fff;
      }
    </style>
  </defs>
  <g id="Camada_2-2" data-name="Camada 2">
    <g id="Camada_1-2" data-name="Camada 1-2">
      <g>
        <path class="cls-1" d="M595.37,70.5c90.93,83.04,111.48,226.2,45.79,331.17-25.89,41.38-44.92,57.22-95.54,43.76-4.66-1.24-11.36-2.45-14.77-5.7l65.93-8.99-99.89-11.01c-.29-2.58,0-1.59,1.46-2.02,11.04-3.24,28.18-4.61,40.01-5.96,26.31-2.99,53.01-4.64,79.41-6.01.25-1.37-1.78-1.51-2.75-1.72-36.12-7.8-75.56-8.09-112.13-14.26-2.35-1.86,17.16-4.62,18.62-4.84,36.73-5.53,75.11-7.07,112.24-7.14l-1.47-2-118.4-11.97c6.11-1.64,12.36-2.89,18.62-3.87,31.01-4.82,63.43-6.74,94.75-8.15l13.49-1.98-151.36-7.99c-4.99-14.93-12.1-27.49-24-37.94-19.38-17.01-61.94-38.74-58.3-69.35.76-6.36,5.24-11.8,6.44-17.53,3.07-14.67-11.21-29.63-11.58-45.58-.34-14.89,10.98-29.79,3.43-44.46-2.67-.46-13.74,9.17-16.4,11.54-6.41,5.7-15.41,14.55-20.94,21.02-12.48,14.61-19.96,33.69-32.03,47.9-6.4,7.54-14.82,12.86-20.78,21.18-7.16,10-10.93,22.32-16.98,32.97-10.91,19.18-33.35,39.61-49.09,55.8-2.55,2.62-5.59,4.27-8.02,6.97,3.25.63,7.41-1.4,10.5-2.48,43.51-15.33,43.14-30.07,65-64.87,6.97-11.1,16.76-20.67,21.41-33.05,1.7-.04,2.16-.56,1.91,1.41-1.07,8.61-1.64,17.06-3.42,25.57-.97,4.65-3.82,9.27-3.01,13.97,18.7-18.4,26.02-44.71,36.96-67.94h2.01l4.48,10.99,8.5-22.95c7.57,12.75,2.31,30.17-5.08,41.85-25.59,32.25-49.72,65.72-79.33,94.51l.48,1.48c15.2-9,29.29-19.79,42.97-30.96,1.31.64.08,2.73-.3,3.7-2.23,5.65-6.04,12.33-10.19,16.78-.16.74,1.02.67,1.48.48,4.71-1.94,18.17-13.16,22.95-17.01s9.34-7.99,14.05-11.9l16.46-21.02c.92,27.2-24.87,41.63-39.92,60.46-2.93,3.66-6.25,8.24-8.83,12.15-1.58,2.4-5.7,11.45-6.67,12.31-2.24,2-15.88.76-20.04.94-28.28,1.25-56.55,2.92-84.83,4.08-15.1.62-30.46-.22-45.49,1.97-.24,1.74,2.27.94,3.48.99,28.09,1.1,57,2.76,84.92,6,7.09.82,36.04,3.98,40.48,6.47.46.26,1.27,1.22.99,1.5-26.93,3.45-54.32,3.81-81.41,6.01-10.12.82-21.93,1.65-31.86,3.11-1.12.17-4.66.36-4.61,1.87,40.04,1.28,80.51,3.66,119.88,11.01,2.12,2.11-4.99,2.76-5.61,2.86-32.9,5.3-67.37,5.45-100.68,11.22-.86.15-3.63.63-3.61,1.39,33.71,3.63,69.92,4.31,102.95,11.95.87.2,8.25,1.56,5.96,3.53l-86.91,9.01,62.94,9.99c.29,2.11.11,1.62-1.27,2.23-2.08.92-6.11,1.85-8.52,2.46-48.75,12.4-68.47-.61-94.93-40.35-58.13-87.32-53.74-208.1,6-293.34C283.94-19.39,476.73-37.86,595.37,70.49h0ZM666.72,299.86c18-130.21-66.4-254.04-194.8-282.23C301.22-19.85,144.53,106.07,155.18,282.42c.34,5.59,1.19,13.16,2.36,18.62.25,1.15.13,3.97,1.66,3.81,1.01-4.38,5.59-6.19,8.53-8.96,11.34-10.7,23.13-25.56,35.71-34.23,5.17-3.56,11.1-5.7,16.19-9.78,12.44-9.98,43.31-48.06,56.19-50.7,13.66-2.81,16.08,6.19,26.6,10.55,1.02-.15,1.76-.8,2.59-1.33,4.55-2.94,20.43-19.59,24.55-24.42,9.32-10.93,15.21-24.49,24.49-35.45,7.38-8.71,41.77-39.59,51.65-41.25,15.31-2.57,22.52,10.96,31.71,19.76,15.61,14.96,37.33,32.1,49.29,49.62,4.08,5.98,6.83,12.97,11.2,18.77,6.55,8.67,16.81,15.71,23.99,24.03,2.66,1.21,5.74-1.58,7.87-3.11,10.96-7.9,14.76-19.79,30.73-12.58,14.59,6.58,42.76,42.15,57.25,54.64,10.04,8.66,22.24,14.7,32.18,23.52l16.78,15.93h.02ZM482.89,228.93c-.03-2.32-1.88-4.49-3.15-6.33-7.46-10.79-18.27-20.66-27.8-29.64l22.45,27.99,8.5,7.98ZM481.89,263.89c.75-.83-8.03-13.3-9.15-15.31-3.07-5.51-5.42-12.06-8.63-17.35-8.68-14.31-23.26-24.81-35.15-36.27l7.57,11.9c17.45,17.23,26.45,41.46,45.36,57.03h0ZM276.02,223.02c-3.13-2.11-12.76,8.73-15.43,10.87-16.14,12.97-31.28,26.48-47.34,39.58-14.19,11.57-29.26,23.4-37.05,40.37,13.56-5.82,27.12-12.77,39.29-21.15,1.8-1.24,4.03-4.8,5.66-3.33l-4.98,8c-.16.74,1.05.68,1.48.49,2.22-.99,13.26-13.71,15.48-16.5,4.42-5.56,7.61-12.22,12.51-17.46.17,10.3-6.96,21.81-12.68,30.28-1.76,2.6-5.95,6.2-5.32,8.67,4.03-3.73,9.75-7.67,13.5-11.47,8.27-8.39,34.62-49.16,35.87-60.05.34-2.94.1-5.58-1.01-8.31h.02ZM550.82,225.93c-4.17.48-11.9,6.42-12.03,10.43-.43,13.38,19.26,28.03,27.02,37.52-4.02-16.22-12.88-31.01-14.99-47.95h0ZM571.81,314.86c-13.38-8.31-24.06-22.1-34.95-33.5l-30.98-23.46c13.79,15.89,26.22,35.89,44.04,47.36,6.77,4.36,14.29,7.91,21.38,11.59l.51-2h0ZM601.2,284.45c-5.94-6.74-11.68-13.63-17.39-20.56,1.25,19.63,20.17,33.22,35.94,41.96.44-1.88-1.05-2.38-1.99-3.5-4.97-5.93-11.35-11.98-16.57-17.9h.01ZM518.86,312.84c.7-.68-4.22-6.54-5.02-7.46-12.43-14.46-33.24-20.47-47.92-32.49,3.61,12.44,16.87,20.55,27.29,27.14l25.64,12.81h.01Z"/>
        <path class="cls-1" d="M421.79,303.1c30.98-.91,54.37,22.95,56.1,53.21,2.41,42.23-40.86,88.96-82.42,92.38-21.89,1.8-41.19-3.73-51.81-24.09-25.58-49.06,25.5-119.96,78.13-121.51h0ZM412.96,318.85c-6.4.14-13.74,3.94-19.28,7.18-18.85,11.03-33.11,31.37-37.65,52.75l13.76-23.7c8.6-11.01,17.71-21.75,29.47-29.48l13.71-6.76h-.01ZM447.93,327.84c-21.06,3.56-36.71,21.76-45.12,40.28-8.92,19.63-11.43,32.79-29.3,47.63-.98.81-9.22,4.38-7.48,5.99,10.65-3.07,20.99-9.81,28.48-17.97,18.65-20.32,19.23-50.47,41.97-67.92l11.45-8.01ZM401.98,429.72c9.67-.54,18.55-4.73,26.28-10.16,8.71-6.12,18.66-15.74,22.65-25.79-10.38,11.24-20.9,21.41-34.29,29.14l-14.65,6.81h0Z"/>
        <path class="cls-1" d="M229.15,686.48h-22.48c-1.39,0-3.82-3.03-4.7-4.29-4.57-6.54-11.38-30.22-15.27-33.68-2.12-1.89-5.79-.72-8.51-.99v29.47c0,2.18,5.76,7.41,6.99,9.49h-34.97c.3-3.5,4.32-4.75,5.77-7.72,1.13-2.33,1.1-4.26,1.27-6.72,1.59-22.64-1.27-47.13-.04-69.97-.14-1.92-.64-3.73-1.58-5.41-1.66-2.96-5.32-3-5.41-6.08h45.46c2.88,0,14.08,4.35,16.82,6.16,12.97,8.6,14.31,28.1,3.21,38.84-2.25,2.17-9.59,5.34-9.57,7.42,6.6,10.03,9.41,24.44,15.83,34.19,2.29,3.49,6.2,5.46,7.19,9.29h0ZM178.2,600.56v36.96c29.5,2.7,29.94-41.76,0-36.96Z"/>
        <path class="cls-1" d="M317.06,686.48h-22.48c-1.96,0-5.42-5.89-6.35-7.64-5-9.34-8.58-20.24-13.07-29.89-2.21-2.52-6.17-1.16-9.05-1.44v28.47c0,2.27,4.01,7.48,5.99,9v1.49h-32.96l5.39-7.1,1.61-5.39c-1.25-22.49,1.66-46.7.04-68.98-.54-7.48-1.96-9.22-7.04-14.44h45.46c5.01,0,13.77,4.02,17.81,7.16,12.48,9.71,12.02,29.56-.3,39.31-2.24,1.77-8.07,3.64-8.06,5.94,6.76,10.03,9.36,24.35,15.83,34.19,2.29,3.49,6.2,5.46,7.19,9.29v.03ZM266.11,637.53c29.11,3.13,30.9-42.32,0-36.96v36.96Z"/>
        <path class="cls-1" d="M624.76,590.57l32.97,56.94v-46.45c0-4.08-6.54-7.32-6.99-10.49h25.97v1.48c-2.22,1.9-6.99,7.18-6.99,10v84.42l-13.48-1.01-40.47-65.93v55.45c0,4.14,4.61,8.47,6.99,11.49h-24.98c1.24-4.43,6.41-6.05,5.99-11.49-1.66-22.77,2.21-48.59.05-70.98-.26-2.65-.63-4.57-2.22-6.77l-5.82-6.66h28.98Z"/>
        <path class="cls-1" d="M373.01,590.57l26.2,83.19c1.55,5.24,5.41,8.7,8.77,12.71h-35.96l5.96-9.54-4.85-16.84-1.57-.66c-4.32.9-24-1.39-26.03,1.05-1.74,2.09-3.88,13.47-3.43,16.43.79,5.2,5.44,5.76,7.94,9.56h-27.97c3.67-4.98,5.82-8.64,8.01-14.47,7.98-21.23,12.65-44.83,20.72-66.19.36-2.3.66-5.31.02-7.54-.85-2.99-5.29-4.71-5.77-7.71h27.97-.01ZM369.01,648.52l-10.49-32.98-9.49,32.98h19.98,0Z"/>
        <path class="cls-1" d="M591.79,686.48h-35.96c.11-3.07,3.71-3.13,5.4-6.08,2.34-4.07-.86-17.23-3.89-19.9-2.79-2.46-22.38-.34-27.32-.82-2.01,5.38-6.12,14.88-3.05,20.2,1.57,2.73,5.96,3.1,5.88,6.6h-27.97l6.77-8.71,23.79-75.19c.55-2.03-.12-4.21-1.18-5.93-1.64-2.66-5.27-2.84-5.41-6.07h27.47c2.39,3.52,3.42,8.18,4.76,12.22,7.48,22.56,13.78,51.96,22.95,72.95,2.1,4.81,4.42,6.88,7.75,10.73h0ZM553.83,648.52l-10.49-32.98-10.49,32.98h20.98Z"/>
        <path class="cls-1" d="M801.59,590.57l25.51,82.89c1.04,5.47,7.14,8.03,7.46,13.02h-35.96c.69-4.79,6.61-4,7.08-9.48.18-2.06-3.81-17.32-4.69-17.56l-27.26.16c-.75,6.86-6.62,13.3-2.77,20.06,1.71,2.99,5.52,3.43,5.67,6.81h-26.97c.1-3.13,3.82-4.55,5.4-7.08,4.11-6.58,22.97-65.71,24.32-74.57,1.16-7.59-1.17-9.06-5.75-14.25h27.97-.01ZM797.59,648.52c-3.87-8.96-5.3-20.85-8.94-29.52-.43-1.02-.67-2.32-2.04-2.45l-9,31.97h19.98Z"/>
        <path class="cls-1" d="M135.24,590.57l.99,24.97c-2.38.55-1.62-.4-2.23-1.3-2.46-3.61-3.81-7.44-7.83-10.12-1.84-1.23-7.56-3.57-9.42-3.57h-15.48v30.97c6.2-.24,14.55,1.07,19.95-2.53,2.5-1.67,2.86-5.34,6.02-5.46v25.97c-2.82-.13-3.39-3.09-5.63-4.86-.85-.67-5.23-3.14-5.85-3.14h-14.49v34.97c10.08.73,20.82,1.64,28.98-5.48,3.02-2.63,4.56-6.36,7.97-8.5l-.99,23.98h-64.94c.04-3.03,3.26-3.16,4.87-5.62,1.14-1.74,1.9-4.76,2.13-6.86,2.57-22.95-1.29-51.81-.78-75.15l-6.21-8.27h62.94Z"/>
        <path class="cls-1" d="M493.89,616.55c-2.33.56-1.65-.45-2.29-1.26-5.64-7.18-8.22-15.13-19.22-15.73-13.83-.75-18.43,13.64-8.47,22.5,13.61,12.11,38.69,14.37,36.97,39.93-1.98,29.61-41.39,28.86-61.94,20.5v-24.98c2.4-.53,1.62.4,2.23,1.3,7.13,10.42,14.48,19.94,29.18,17.61,9.92-1.57,12.74-13.32,6.57-20.42-10.19-11.73-36.31-13.28-38.86-34.07-4.25-34.52,31.32-39.49,55.84-27.86v22.48h-.01Z"/>
        <path class="cls-1" d="M56.32,593.57v22.98c-1.88.42-1.93-.63-2.83-1.67-3.07-3.55-4.45-8.15-8.67-11.31-16.25-12.19-34.24,5.59-17.5,19.5,11.64,9.67,32.48,13.86,34.91,32.03,4.6,34.44-38.31,39.55-60.86,25.89v-23.48c2.33-.56,1.65.45,2.29,1.26,4.75,6.04,7.22,12.36,15.17,15.74,12.54,5.33,29.05.38,22.34-15.35-5.39-12.64-37.01-15.4-40.56-36.36-5.8-34.2,31.33-40.19,55.71-29.23h0Z"/>
        <path class="cls-1" d="M755.63,590.57v23.98c-7.44-8.28-10.91-15.47-23.98-13.99v78.42c0,2.62,6.69,4.54,5.99,7.49h-35.96l7.99-9.49v-76.43c-8.23-.61-13.43,1.7-18.42,8.05-1.78,2.27-2.06,6.98-5.56,6.93v-24.98h69.93v.02Z"/>
        <path class="cls-1" d="M410.97,560.6h-29.97c7.33-6.18,4.94-10.39,2.11-18.39l-1.57-.66c-9.71,1.79-20.71-5.29-22.28,7.84-.85,7.09,1.68,6.64,5.75,11.21h-23.98c1.97-3.01,4.77-4.63,6.51-7.98,3.59-6.95,14.54-40.94,16.02-48.91,1.09-5.91.59-8.69-3.54-13.04h23.48c1,.8,1.53,1.83,2,3,7.07,17.61,10.9,42.76,18.97,58.95,1.68,3.37,4.57,4.96,6.5,7.98h0ZM379,532.62c.77-.73-5.21-18.25-6.06-20.41-.41-1.04-.37-2.41-1.92-2.56l-5.99,23.98c4.35-1.95,9.34-.65,13.97-1h0Z"/>
        <path class="cls-1" d="M540.84,490.67l1.99,17.98c-3.22.12-3.81-3.68-6.02-5.46-.61-.49-6.09-3.53-6.46-3.53h-16.48v19.98c4.44-.13,9.16.57,13.46-1.03,3.48-1.29,4.06-4.53,7.52-4.97v19.98c-3.36-.69-4.16-3.42-7.76-4.73-4.24-1.55-8.79-1.34-13.22-1.26v23.98h14.49c.91,0,5.93-2.15,7.18-2.81l8.3-6.17-.99,17.98h-52.95c2.23-3.05,5.31-5.53,5.93-9.56,1.49-9.65,1.14-40.71.13-50.95-.53-5.38-3.39-5.34-6.06-9.43h50.95-.01Z"/>
        <path class="cls-1" d="M326.05,492.67v20.98c-5.57-6.93-7.75-14.26-18.44-14.02-24.29.55-24.61,48.9.6,51.32,8.58.82,13.89-4.09,19.82-9.33l-1.49,13.99c-30.2,19.41-65.48-6.31-54.75-41.76,7.41-24.49,32.72-27.47,54.25-21.18h0Z"/>
        <path class="cls-1" d="M473.91,490.67l.99,17.98c-6.65-10.17-16.72-10.52-27.96-9.99v20.98c3.87-.36,8.54.63,12.28-.21,3.46-.78,4.35-4.5,7.7-4.78v19.98c-5.95-6.6-11.07-7.94-19.98-6.99v25.48c0,1.72,5.26,5.56,5.99,7.49h-29.97c1.17-2.47,4.09-3.75,5.23-6.26,2.68-5.93,2.6-44.08,1.65-52.07-.61-5.17-2.48-7.92-5.88-11.6h49.95,0Z"/>
        <path class="cls-1" d="M527.85,473.7c.51,1.95-.8,1.93-1.67,2.81-2.14,2.17-9.66,7.61-12.35,8.64-1.98.76-2.56.89-3.95-.99l7-13.02,10.98,2.57h-.01Z"/>
        <path class="cls-1" d="M609.53,146.26c13.17-.2,9.88,6.25-.24,9.75-28.21,9.75-59.63,14.64-88.21,23.74-7.64.89-9.19-6.13-1.19-9.25,27.2-10.61,61.63-14.58,89.64-24.25h0Z"/>
        <path class="cls-1" d="M208.8,143.29l93.26,25.2c2.83,2.73,1.51,7.6-2.26,8.25-27.7-7.89-57.07-13.69-84.41-22.48-5.95-1.91-16.53-4.92-6.59-10.97Z"/>
        <path class="cls-1" d="M507.09,153.79c-.77-2.31-.35-4.97,1.81-6.25,20.22-10.15,39.81-21.65,59.89-32.02,3.01-1.55,14.62-8.02,16.75-8.33,3.86-.56,7.38,6.17,3.21,8.32-16.74,8.75-33.07,18.43-49.89,27.03-5.21,2.66-22.69,12.55-26.98,13.09-2.1.27-3.12-.98-4.8-1.83h0Z"/>
        <path class="cls-1" d="M235.82,106.18c3.18-.86,5.65,1.06,8.33,2.35,22.01,10.56,43.19,24.93,65.26,35.64,5.82,3.6,1.25,11.55-5.06,8.05l-70.74-39.18c-1.16-1.89.08-6.16,2.21-6.86h0Z"/>
        <path class="cls-1" d="M495.15,133.75c-.59-.57-2.24-4.31-2.1-5.09l59.44-49.45c2.33-1.78,4.88-1.07,6.85.85,2.88,4.73-7.5,11.89-11.03,14.97-12.82,11.18-30.76,27.15-44.52,36.4-2.36,1.59-5.83,5.01-8.64,2.32h0Z"/>
        <path class="cls-1" d="M266.82,77.22c2.57-.66,7.48,4.12,9.75,5.88,14.73,11.41,34.39,27.46,47.49,40.42,5.9,5.83.69,11.1-3.97,8.99l-54.48-46.44c-3.52-3.68-3.23-6.21,1.21-8.85h0Z"/>
        <path class="cls-1" d="M483.61,115.73c-2.64,2.16-6.94,1.42-8.25-1.72-.84-2.02,1.91-5.2,3.13-6.88,12.58-17.32,29.26-33.06,41.66-50.73,3.44-2.53,6.61-1.2,8.53,2.34l-2.42,5.26-42.65,51.73h0Z"/>
        <path class="cls-1" d="M298.8,55.24c.87-.23,1.69-.33,2.55,0l43.55,53.48c2.75,3.09-1.73,8.07-5.16,7.18-1.12-.29-4.14-3.7-5.22-4.84-10.61-11.28-28.24-33.24-36.85-46.07-1.12-1.66-2.73-3.09-2.64-5.35.13-1.51,2.38-4.03,3.77-4.4h0Z"/>
        <path class="cls-1" d="M486.57,41.22c5.68-.12,8.1,2.57,5.83,7.86-5.29,12.29-20.16,40.58-27.65,51.3-4.77,6.83-10.24.74-9.09-3.02l30.91-56.15h0Z"/>
        <path class="cls-1" d="M359.27,102.79l-28.78-54.67c-2.37-5.1,4.58-8.11,8.07-5.02l29.32,57.24c-1.93,3.63-5.06,4.88-8.6,2.45h-.01Z"/>
        <path class="cls-1" d="M369.74,32.29c5.13-.75,5.55,4.39,6.75,7.83,5.63,16.05,8.69,33.59,14.32,49.71.99,4.9-3.82,6.32-7.86,4.76l-16.91-58.12.43-2.36c.46-.75,2.36-1.69,3.27-1.82h0Z"/>
        <path class="cls-1" d="M449.57,32.25c3.56-.79,7.54.08,7.34,4.25-6.05,17.39-9.04,35.88-14.68,53.36-1.76,5.46-3.55,7.07-8.8,3.21l-.44-4.4,14.84-54.15,1.73-2.27h0Z"/>
        <path class="cls-1" d="M187.9,191.18c20.72,1.16,41.69-.29,62.29,2.22,4.94,12.07-14,6.66-20.5,6.52-8.56-.19-38.33,1.61-43.77-1.18-5.05-2.59-2.31-6.22,1.98-7.55h0Z"/>
        <path class="cls-1" d="M406.97,32.62c1.26-2.66,8.99-3.48,8.99-1v57.94c0,2.25-7.64,4-8.99,1v-57.94Z"/>
        <path class="cls-1" d="M587.56,197.22c8.28-1.24,40.61-1.52,48.63-.21,4.08.67,8.15,4.94,3.97,7.86-5.16,3.6-45.78-.47-54.84,1.05-7.51-3.52-5.05-7.61,2.24-8.7h0Z"/>
      </g>
    </g>
  </g>
</svg>